{"title":"X-Men Days Of Future Past (2014) 720p x264 En-Hi-Ta-Te-Ur AAC 5.","uid":15584974,"size":1953602092,"categoryP":"video","categoryS":"hd___movies","magnet":"?xt=urn:btih:513e48c22ef2375f17a3fd646afcbea7acf45c91&amp;dn=X-Men+Days+Of+Future+Past+%282014%29+720p+x264+En-Hi-Ta-Te-Ur+AAC+5.&amp;tr=udp%3A%2F%2Ftracker.leechers-paradise.org%3A6969&amp;tr=udp%3A%2F%2Fzer0day.ch%3A1337&amp;tr=udp%3A%2F%2Fopen.demonii.com%3A1337&amp;tr=udp%3A%2F%2Ftracker.coppersurfer.tk%3A6969&amp;tr=udp%3A%2F%2Fexodus.desync.com%3A6969","seeders":12,"leechers":13,"uploader":"SaM","files":3,"time":1471454021,"description":"\n720p Blu-ray Rip x264\r\n\r\nEnglish / Hindi / Tamil / Telugu / Urdu 192 Kbps AAC 5.1\r\n\r\n\r\n\r\nEnglish &amp; English Hearing Impaired Subtitle\r\nFrench &amp; French Hearing Impaired Subtitle\r\nHindi &amp; Hindi Hearing Impaired Subtitle\r\n \nhttp://extraimago.com/image/wcQS \nhttp://extraimago.com/image/wcQO \nhttp://extraimago.com/image/wcQE \nhttp://extraimago.com/image/wcQ1 \nhttp://extraimago.com/image/wcQc \nhttp://extraimago.com/image/wcQ7 \nhttp://extraimago.com/image/wcQs \nhttp://extraimago.com/image/wcQn \nhttp://extraimago.com/image/wcQj \nhttp://extraimago.com/image/wcQT \nhttp://extraimago.com/image/wcQN\r\n\r\nSpecs:\r\nSource: BD50\r\n\r\nFormat : Matroska\r\nFile size : 1.80 GiB\r\nDuration : 2h 11mn\r\nOverall bit rate : 1 961 Kbps\r\n\r\n\r\nVideo\r\nFormat : AVC\r\nFormat/Info : Advanced Video Codec\r\nFormat profile :   \r\nFormat settings, CABAC : Yes\r\nFormat settings, ReFrames : 12 frames\r\nCodec ID : V_MPEG4/ISO/AVC\r\nDuration : 2h 11mn\r\nBit rate : 993 Kbps\r\nWidth : 1 280 pixels\r\nHeight : 534 pixels\r\nDisplay aspect ratio : 2.40:1\r\nFrame rate mode : Constant\r\nFrame rate : 23.976 (24000/1001) fps\r\nColor space : YUV\r\nChroma subsampling : 4:2:0\r\nBit depth : 8 bits\r\nScan type : Progressive\r\nBits/(Pixel*Frame) : 0.061\r\nStream size : 934 MiB (51%)\r\n\r\nAudio #1\r\nFormat : AAC\r\nFormat/Info : Advanced Audio Codec\r\nFormat profile : LC\r\nCodec ID : A_AAC\r\nDuration : 2h 11mn\r\nBit rate : 192 Kbps\r\nChannel(s) : 6 channels\r\nChannel positions : Front: L C R, Side: L R, LFE\r\nSampling rate : 48.0 KHz\r\nFrame rate : 46.875 fps (1024 spf)\r\nCompression mode : Lossy\r\nDelay relative to video : 9ms\r\nStream size : 180 MiB (10%)\r\nLanguage : English\r\nDefault : Yes\r\nForced : No\r\n\r\nAudio #2\r\nID : 3\r\nFormat : AAC\r\nFormat/Info : Advanced Audio Codec\r\nFormat profile : LC\r\nCodec ID : A_AAC\r\nDuration : 2h 11mn\r\nBit rate : 192 Kbps\r\nChannel(s) : 6 channels\r\nChannel positions : Front: L C R, Side: L R, LFE\r\nSampling rate : 48.0 KHz\r\nFrame rate : 46.875 fps (1024 spf)\r\nCompression mode : Lossy\r\nDelay relative to video : 9ms\r\nStream size : 180 MiB (10%)\r\nLanguage : Hindi\r\nDefault : No\r\nForced : No\r\n\r\nAudio #3\r\nID : 4\r\nFormat : AAC\r\nFormat/Info : Advanced Audio Codec\r\nFormat profile : LC\r\nCodec ID : A_AAC\r\nDuration : 2h 11mn\r\nBit rate : 192 Kbps\r\nChannel(s) : 6 channels\r\nChannel positions : Front: L C R, Side: L R, LFE\r\nSampling rate : 48.0 KHz\r\nFrame rate : 46.875 fps (1024 spf)\r\nCompression mode : Lossy\r\nDelay relative to video : 9ms\r\nStream size : 180 MiB (10%)\r\nLanguage : Tamil\r\nDefault : No\r\nForced : No\r\n\r\nAudio #4\r\nID : 5\r\nFormat : AAC\r\nFormat/Info : Advanced Audio Codec\r\nFormat profile : LC\r\nCodec ID : A_AAC\r\nDuration : 2h 11mn\r\nBit rate : 192 Kbps\r\nChannel(s) : 6 channels\r\nChannel positions : Front: L C R, Side: L R, LFE\r\nSampling rate : 48.0 KHz\r\nFrame rate : 46.875 fps (1024 spf)\r\nCompression mode : Lossy\r\nDelay relative to video : 9ms\r\nStream size : 180 MiB (10%)\r\nLanguage : Telugu\r\nDefault : No\r\nForced : No\r\n\r\nAudio #5\r\nID : 6\r\nFormat : AAC\r\nFormat/Info : Advanced Audio Codec\r\nFormat profile : LC\r\nCodec ID : A_AAC\r\nDuration : 2h 11mn\r\nBit rate : 192 Kbps\r\nChannel(s) : 6 channels\r\nChannel positions : Front: L C R, Side: L R, LFE\r\nSampling rate : 48.0 KHz\r\nFrame rate : 46.875 fps (1024 spf)\r\nCompression mode : Lossy\r\nDelay relative to video : 9ms\r\nStream size : 180 MiB (10%)\r\nLanguage : Urdu\r\nDefault : No\r\nForced : No\r\n\r\nText #1\r\nID : 7\r\nFormat : VobSub\r\nMuxing mode : zlib\r\nCodec ID : S_VOBSUB\r\nCodec ID/Info : Picture based subtitle format used on DVDs\r\nDuration : 2h 1mn\r\nBit rate : 2 854 bps\r\nCount of elements : 1286\r\nStream size : 2.48 MiB (0%)\r\nLanguage : English\r\nDefault : Yes\r\nForced : No\r\n\r\nText #2\r\nID : 8\r\nFormat : VobSub\r\nMuxing mode : zlib\r\nCodec ID : S_VOBSUB\r\nCodec ID/Info : Picture based subtitle format used on DVDs\r\nDuration : 17mn 56s\r\nBit rate : 347 bps\r\nCount of elements : 24\r\nStream size : 45.7 KiB (0%)\r\nLanguage : English\r\nDefault : No\r\nForced : No\r\n\r\nText #3\r\nID : 9\r\nFormat : VobSub\r\nMuxing mode : zlib\r\nCodec ID : S_VOBSUB\r\nCodec ID/Info : Picture based subtitle format used on DVDs\r\nDuration : 2h 10mn\r\nBit rate : 2 295 bps\r\nCount of elements : 1223\r\nStream size : 2.14 MiB (0%)\r\nLanguage : French\r\nDefault : No\r\nForced : No\r\n\r\nText #4\r\nID : 10\r\nFormat : VobSub\r\nMuxing mode : zlib\r\nCodec ID : S_VOBSUB\r\nCodec ID/Info : Picture based subtitle format used on DVDs\r\nDuration : 2h 9mn\r\nBit rate : 38 bps\r\nCount of elements : 23\r\nStream size : 36.2 KiB (0%)\r\nLanguage : Hindi\r\nDefault : No\r\nForced : No\r\n\r\nSAMPLE Included","torrent":{"xt":"urn:btih:513e48c22ef2375f17a3fd646afcbea7acf45c91","amp;dn":"X-Men+Days+Of+Future+Past+%282014%29+720p+x264+En-Hi-Ta-Te-Ur+AAC+5.","amp;tr":["udp%3A%2F%2Ftracker.leechers-paradise.org%3A6969","udp%3A%2F%2Fzer0day.ch%3A1337","udp%3A%2F%2Fopen.demonii.com%3A1337","udp%3A%2F%2Ftracker.coppersurfer.tk%3A6969","udp%3A%2F%2Fexodus.desync.com%3A6969"],"infoHash":"513e48c22ef2375f17a3fd646afcbea7acf45c91","infoHashBuffer":{"type":"Buffer","data":[81,62,72,194,46,242,55,95,23,163,253,100,106,252,190,167,172,244,92,145]},"announce":[],"urlList":[]}}